<?xml version="1.0" encoding="UTF-8"?>
<svg id="Layer_2" data-name="Layer 2" xmlns="http://www.w3.org/2000/svg" viewBox="0 0 388.58 388.59">
  <defs>
    <style>
      .cls-1 {
        fill: #54afff;
      }

      .cls-1, .cls-2, .cls-3, .cls-4, .cls-5, .cls-6 {
        stroke-width: 0px;
      }

      .cls-2 {
        fill: #f95454;
      }

      .cls-3 {
        fill: #09e7fe;
      }

      .cls-4 {
        fill: #9f76ff;
      }

      .cls-5 {
        fill: #fff;
      }

      .cls-6 {
        fill: #cc65aa;
      }
    </style>
  </defs>
  <g id="Layer_4_copy_3" data-name="Layer 4 copy 3">
    <g>
      <path class="cls-5" d="M259.06,194.3c-35.77,0-64.76,28.99-64.77,64.76,0-35.77-28.99-64.76-64.76-64.76,35.77,0,64.76-29,64.76-64.77,0,35.77,28.99,64.77,64.77,64.77Z"/>
      <g>
        <path class="cls-3" d="M129.53,194.3c-35.77,0-64.76,28.99-64.77,64.76C28.99,259.06,0,230.07,0,194.3c0-17.89,7.25-34.08,18.97-45.8,11.72-11.73,27.91-18.97,45.8-18.97,0,35.77,29,64.77,64.77,64.77Z"/>
        <path class="cls-3" d="M388.58,194.3c0,17.89-7.25,34.08-18.97,45.8-11.72,11.71-27.91,18.97-45.8,18.97,0-17.89-7.25-34.07-18.97-45.79-11.72-11.72-27.92-18.97-45.8-18.97,17.88,0,34.08-7.25,45.8-18.97,11.72-11.72,18.97-27.91,18.97-45.8,35.77,0,64.76,28.99,64.76,64.77Z"/>
      </g>
      <g>
        <path class="cls-1" d="M194.29,129.53c0,35.77-28.99,64.77-64.76,64.77s-64.77-29-64.77-64.77h129.53Z"/>
        <path class="cls-1" d="M323.82,129.53c0,17.89-7.25,34.08-18.97,45.8-11.72,11.72-27.92,18.97-45.8,18.97-35.77,0-64.77-29-64.77-64.77h129.53Z"/>
        <path class="cls-1" d="M194.29,259.06H64.76c0-35.77,29-64.76,64.77-64.76s64.76,28.99,64.76,64.76Z"/>
        <path class="cls-1" d="M323.82,259.06h-129.53c0-35.77,28.99-64.76,64.77-64.76,17.88,0,34.08,7.25,45.8,18.97,11.72,11.72,18.97,27.9,18.97,45.79Z"/>
      </g>
      <g>
        <path class="cls-4" d="M194.29,129.53H64.76c0-17.89,7.25-34.08,18.97-45.8,11.72-11.71,27.91-18.97,45.8-18.97,0,35.77,28.99,64.76,64.76,64.76Z"/>
        <path class="cls-4" d="M323.82,129.53h-129.53c17.88,0,34.08-7.25,45.8-18.97,11.72-11.72,18.97-27.92,18.97-45.8,35.77,0,64.76,28.99,64.76,64.76Z"/>
        <path class="cls-4" d="M194.29,259.06c-35.77,0-64.76,29-64.76,64.77-17.89,0-34.08-7.25-45.8-18.97-11.72-11.72-18.97-27.91-18.97-45.8h0s129.53,0,129.53,0Z"/>
        <path class="cls-4" d="M323.82,259.06h0c0,35.77-28.99,64.77-64.76,64.77,0-17.88-7.25-34.08-18.97-45.8-11.72-11.72-27.92-18.97-45.8-18.97h129.53Z"/>
      </g>
      <g>
        <path class="cls-2" d="M259.06,64.77h-129.53c0-17.88,7.25-34.08,18.97-45.8C160.22,7.25,176.41,0,194.29,0s34.08,7.25,45.8,18.97c11.72,11.72,18.97,27.92,18.97,45.8Z"/>
        <path class="cls-2" d="M259.06,323.83c0,17.88-7.25,34.08-18.97,45.8-11.72,11.72-27.92,18.97-45.8,18.97s-34.08-7.25-45.8-18.97c-11.72-11.72-18.97-27.92-18.97-45.8h129.53Z"/>
      </g>
      <g>
        <path class="cls-6" d="M259.06,64.77c0,17.88-7.25,34.08-18.97,45.8-11.72,11.72-27.92,18.97-45.8,18.97-35.77,0-64.76-28.99-64.76-64.76h129.53Z"/>
        <path class="cls-6" d="M259.06,323.83h-129.53c0-35.77,28.99-64.77,64.76-64.77,17.88,0,34.08,7.25,45.8,18.97,11.72,11.72,18.97,27.92,18.97,45.8Z"/>
      </g>
    </g>
  </g>
</svg>